<?xml version="1.0" encoding="UTF-8"?>
<svg width="170px" height="31px" viewBox="0 0 170 31" version="1.1" xmlns="http://www.w3.org/2000/svg" xmlns:xlink="http://www.w3.org/1999/xlink">
    <title>Weave-Logo</title>
    <g id="WC-Form---Multi-Office" stroke="none" stroke-width="1" fill="none" fill-rule="evenodd">
        <g id="Welcome-to-Weave-page-Copy-3" transform="translate(-48.000000, -28.000000)" fill="#29343C">
            <g id="Weave-Logo" transform="translate(48.000000, 28.000000)">
                <path d="M19.1940667,12.2762144 L19.1940667,18.543468 C19.1727682,25.2882197 24.6156774,30.8174551 31.4561187,31 C37.913358,30.9944221 43.2981032,26.1309761 43.8665019,19.7910706 C43.9653894,18.8602421 44,16.4673793 44,15.526804 C44,14.5862286 43.9653894,12.1933658 43.8665019,11.2625373 C43.4948374,6.83143707 40.7158695,2.94694178 36.606148,1.1138737 C32.4964264,-0.719194381 27.7015862,-0.212861221 24.07911,2.43672379 C23.970277,2.54880251 23.9598127,2.7220807 24.0543881,2.84609338 L26.6600742,7.10548656 C26.7021404,7.16605331 26.7687826,7.20566771 26.8427596,7.21408107 C26.9167366,7.22249443 26.9907806,7.19888018 27.0457355,7.14934759 L27.0457355,7.14934759 C28.944966,5.56918826 31.5645072,5.12916561 33.8875338,6.0000829 C36.2105605,6.87100018 37.8712482,8.91570755 38.2249691,11.3405125 C38.3665166,12.729737 38.4259495,14.1259016 38.4029666,15.5219305 C38.4246698,16.9047421 38.3685474,18.2876759 38.2348578,19.6643609 C37.7591096,22.9941499 34.8677038,25.4699079 31.4561187,25.468637 L31.4561187,25.468637 C29.679714,25.437506 27.9892001,24.7096121 26.7589617,23.4461563 C25.5108532,22.1846381 24.8148956,20.4907023 24.8207664,18.728659 L24.8207664,12.4614054 C24.8445622,5.70922813 19.3920755,0.174791116 12.5438813,0 C6.07794961,0.00668938926 0.68984191,4.88375171 0.133498146,11.2332967 C0.0296662546,12.1836189 0,14.5569879 0,15.5024367 C0,16.4478856 0.0296662546,18.8310014 0.133498146,19.7667033 C0.510485079,24.1927191 3.28821068,28.0710143 7.39330246,29.9029329 C11.4983942,31.7348514 16.2878804,31.2334638 19.9110012,28.5925169 C20.0167838,28.4772377 20.0270639,28.3049822 19.9357231,28.1782739 L17.3300371,23.9188807 C17.2879708,23.8583139 17.2213287,23.8186995 17.1473517,23.8102862 C17.0733747,23.8018728 16.9993307,23.8254871 16.9443758,23.8750197 L16.9443758,23.8750197 C15.0458858,25.4576592 12.42543,25.8998274 10.100943,25.0297608 C7.77645609,24.1596942 6.11431787,22.1145305 5.76019778,19.6887282 C5.62277556,18.2992393 5.56499936,16.9032149 5.58714462,15.5073102 C5.56543098,14.1228763 5.62155325,12.73832 5.7552534,11.3600063 C6.21686626,8.01602682 9.11009459,5.51998804 12.5339926,5.5118692 L12.5339926,5.5118692 C14.3103972,5.54300021 16.0009112,6.2708941 17.2311496,7.53434994 C18.4782048,8.79852387 19.1738692,10.493495 19.1693449,12.2567206 L19.1940667,12.2762144 Z" id="Path"></path>
                <polygon id="Path" points="73.5063996 26 77.9438338 26 85 5 80.4283993 5 75.6480952 19.6853147 70.6441801 5 66.360789 5 61.3022135 19.6853147 56.5765698 5 52 5 59.0611354 26 63.478693 26 68.5024846 11.4425897"></polygon>
                <polygon id="Path" points="136.408046 26 141.591954 26 150 5 145.496905 5 139.024315 21.0591022 132.507958 5 128 5"></polygon>
                <path d="M107.079059,17.809859 C107.499059,22.9620556 112.153647,27 117.336941,27 C119.516491,27.0015441 121.644902,26.3412071 123.439294,25.1067499 L123.671529,24.9391186 L124.476941,26.4182182 L128,26.4182182 C127.755722,25.2071504 127.628316,23.9755119 127.619529,22.7401907 L127.619529,14.0085733 C127.619529,8.49153216 122.861176,4 117.332,4 C112.148706,4 107.494118,8.03794165 107.074118,13.1901383 L107.074118,13.1901383 C107,13.9346183 107,14.7678444 107,15.3792055 L107,15.6207918 C107,16.2321529 107,17.065379 107.074118,17.809859 L107.079059,17.809859 Z M117.336941,23.0557319 C114.322824,23.0557319 111.531059,20.871595 111.071529,17.9331173 L111.071529,17.9331173 L111.036941,17.6471581 C110.973758,16.958802 110.947368,16.2675763 110.957882,15.5764188 L110.957882,15.4038572 C110.947368,14.7126997 110.973758,14.021474 111.036941,13.3331179 L111.071529,13.0471586 L111.071529,13.0471586 C111.531059,10.0889596 114.322824,7.92454402 117.336941,7.92454402 C120.351059,7.92454402 123.093412,10.1284023 123.552941,13.0570193 L123.552941,13.0570193 L123.582588,13.3429785 C123.645771,14.0313346 123.672162,14.7225604 123.661647,15.4137178 L123.661647,15.5862794 C123.672162,16.2774369 123.645771,16.9686626 123.582588,17.6570188 L123.552941,17.942978 L123.552941,17.942978 C123.093412,20.871595 120.321412,23.0557319 117.336941,23.0557319 Z" id="Shape" fill-rule="nonzero"></path>
                <path d="M105,14.2748124 C105,8.68874598 100.421335,4 95,4 C89.4793785,4.00543576 85.0053703,8.5340144 85,14.1219721 L85,16.8780279 C85,22.459164 89.6566001,27 95.2873843,27 C99.0197604,26.9978842 102.480373,25.024042 104.41549,21.7935691 L100.966878,19.9989282 C99.6994674,21.9181632 97.5680733,23.0690185 95.2873843,23.0655949 C92.3560278,23.0086698 89.8137326,20.9998454 89.047735,18.1352626 C89.0378734,18.048446 89.0378734,17.9607715 89.047735,17.873955 L104.922065,17.8197213 L105,14.2748124 Z M88.8918656,14.1022508 L88.8918656,13.6092176 C89.145058,10.4149822 91.7657354,7.94494086 94.9314977,7.91674235 C98.09726,7.88854385 100.760477,10.3115198 101.069167,13.5007503 L101.069167,14.0677385 L88.8918656,14.1022508 Z" id="Shape" fill-rule="nonzero"></path>
                <path d="M170,14.2748124 C170,8.68874598 165.420219,4 159.997564,4 C154.4775,4.00815216 150.005366,8.5359366 150,14.1219721 L150,16.8780279 C150,22.459164 154.652862,27 160.28989,27 C164.02144,26.9961624 167.48066,25.0225417 169.415347,21.7935691 L165.965895,19.9989282 C164.707197,21.9156123 162.583525,23.0669561 160.309379,23.0655949 C157.376161,23.0119442 154.831533,21.0017663 154.06821,18.1352626 C154.05595,18.0486018 154.05595,17.9606158 154.06821,17.873955 L169.951279,17.8197213 L170,14.2748124 Z M153.892814,14.1022508 L153.892814,13.6092176 C154.146068,10.4149822 156.767384,7.94494086 159.933917,7.91674235 C163.100451,7.88854385 165.764316,10.3115198 166.073082,13.5007503 L166.073082,14.0677385 L153.892814,14.1022508 Z" id="Shape" fill-rule="nonzero"></path>
            </g>
        </g>
    </g>
</svg>